<?xml version="1.0" encoding="UTF-8"?>
<svg id="Layer_1" xmlns="http://www.w3.org/2000/svg" version="1.1" viewBox="89.9 239.77 418.08 373.26">
  <!-- Generator: Adobe Illustrator 29.8.2, SVG Export Plug-In . SVG Version: 2.1.1 Build 3)  -->
  <defs>
    <style>
      .st0 {
        fill: #566e7e;
      }

      .st1 {
        fill: #34393c;
      }
    </style>
  </defs>
  <path class="st0" d="M215.44,524.18c-2.32-1.5-4.05-2.72-6.05-4.59l20.81-3.03c1.32-.19,2.71.16,3.94.65,53.43,21.59,111.47,10.51,158.81-20.06,3.15-2.04,8.15-3.47,10.17-.31,2.18,3.4-5.23,12.55-7.71,15.49-15.06,17.85-38.04,29.42-60.61,34.79-19.82,4.71-40.22,4.86-60.28,1.1-21.22-3.98-40.9-12.29-59.08-24.04Z"/>
  <path class="st1" d="M268.8,595.6c-41.43-9.24-80.14-35.07-103.15-71.78l26.38-2.39c2.22-.2,3.94,1.05,5.56,2.37,10.94,10.33,22.85,19.24,35.87,26.88,18.33,10.77,38.62,17.06,59.74,18.77,39.91,3.23,79.12-10.83,107.7-38.92,14.59-14.34,25.59-31.98,32.67-51.15,1.28-3.47,4.49-5.35,8.04-5.35l19.2.03c1.49,0,3.42.62,3.91,2.06.55,1.62.26,3.45-.17,5.12-2.47,9.62-5.99,18.61-10.6,27.52-22.94,44.35-63.21,75.52-112,86.73-24.13,5.54-49.01,5.49-73.15.11Z"/>
  <circle class="st1" cx="450.56" cy="438.67" r="23.06"/>
  <path class="st0" d="M106.64,516.38c-2.64-1.65.95-10.9,2.37-13.66,8.47-16.55,26.42-26.84,44.52-28.45l27.56-2.45,36.34-3.7c49.15-5,101.23-20.98,147.8-37.58,17.59-6.27,56.04-15.03,74.99-16.59-13.83,5.37-45.08,13.06-58.27,19.59-13.68,6.77-24.54,14.24-37.54,22.23l-31.27,19.23c-31.37,19.29-70.46,31.22-106.95,35.66-14.4,1.75-28.35,2.92-42.82,3.67l-54.17,2.81c-1.01.05-1.96-.38-2.55-.74Z"/>
  <path class="st0" d="M138.46,464.26c-10.52.45-20.3.88-30.49.56-1.19-.04-2.39-.71-3-1.27-3.07-2.85,2.01-13.65,4.12-17.2,6.05-10.17,15.28-17.59,26.31-21.85,7.36-2.85,14.68-3.85,22.67-4.29l91.63-4.96,50.93-3.03,82.9-4.39c21.52-1.14,42.69-1.24,64.14-.91,12.61.19,24.7,1.1,37.08,3.06,3.81.98,7.61.91,11.23,2.99-30.47-3.29-60.77-3.26-91.09.76-13.86,1.84-27.06,5.13-40.32,9.25l-21.51,6.68c-24.14,7.5-48.78,13.28-73.64,18.46-43.19,9-86.75,14.28-130.96,16.15Z"/>
  <path class="st1" d="M325.69,402.43l-48.81,3.29-76.78,4.82-44.49,1.59c-14.78.53-29.13.54-43.79.06-.97-.03-2.04-.63-2.47-1.12-.56-.63-.83-2-.56-3.04,2.09-8.06,6.03-15.46,11.62-21.67,8.17-9.09,20.85-12.79,32.81-12.57l25.72.49c29.51.56,58.87,1.52,88.45,3.26,36.63,2.16,72.71,7.3,108.74,13.76l65.57,9.7c5.79,1.04,11.12,1.86,16.59,3.41l-24.56-1.1c-30.39-1.36-77.37-2.95-108.03-.88Z"/>
  <path class="st1" d="M339.88,299.96c-27.58-6.94-56.4-4.79-82.65,5.37-23.3,9.01-43.51,24.39-58.72,44.07-2.94,3.8-5.4,7.41-7.54,11.7-.99,1.98-2.32,4.61-5.04,4.71-8.54.33-17.08-.34-25.49-1.87-.95-.17-1.79-.53-2.14-.99-.55-.73-.5-1.63-.14-2.5,11.38-27.98,33.91-52.87,59.07-69.04,61.66-39.64,141.42-33.94,197.06,13.26,23.52,19.95,40.91,46.16,49.79,75.62,1.16,3.84,2.06,7.3,2.47,11.22.29,2.74-1.58,5.04-4.43,5.04-5.8,0-11.35.26-17.26-.09-4.02-.24-8.27-3.34-9.53-7.28-3.62-11.25-8.3-21.6-14.78-31.51-18.61-28.48-47.34-49.32-80.66-57.7Z"/>
  <path class="st0" d="M265.98,344.85c-12.25,4.24-23.25,9.87-33.68,17.03-1.61,1.1-3.98.67-5.77.63-5.58-.12-10.87-.08-16.36-.54-.88-.07-1.77-.44-2.14-.88-1.4-1.68.72-4.65,2.19-6.13,7.72-7.76,16.26-14.23,25.7-19.9,35.97-21.59,79.35-28.77,119.62-15.48,18.31,6.04,37.62,17.63,49.73,33.07-1.35.53-2.64.24-4-.41-16.76-7.95-34.5-12.97-53.01-15.42-27.72-3.67-55.63-1.18-82.27,8.03Z"/>
</svg>