<?xml version="1.0" encoding="UTF-8"?>
<svg id="Layer_1" xmlns="http://www.w3.org/2000/svg" version="1.1" xmlns:xlink="http://www.w3.org/1999/xlink" viewBox="0 0 595.28 841.89">
  <!-- Generator: Adobe Illustrator 29.8.2, SVG Export Plug-In . SVG Version: 2.1.1 Build 3)  -->
  <defs>
    <style>
      .st0 {
        fill: url(#linear-gradient2);
      }

      .st1 {
        fill: url(#linear-gradient10);
      }

      .st2 {
        fill: url(#linear-gradient1);
      }

      .st3 {
        fill: url(#linear-gradient9);
      }

      .st4 {
        fill: url(#linear-gradient18);
      }

      .st5 {
        fill: url(#linear-gradient8);
      }

      .st6 {
        fill: url(#linear-gradient11);
      }

      .st7 {
        fill: url(#linear-gradient16);
      }

      .st8 {
        fill: url(#linear-gradient12);
      }

      .st9 {
        fill: url(#linear-gradient7);
      }

      .st10 {
        fill: url(#linear-gradient4);
      }

      .st11 {
        fill: url(#linear-gradient14);
      }

      .st12 {
        fill: url(#linear-gradient5);
      }

      .st13 {
        fill: url(#linear-gradient3);
      }

      .st14 {
        fill: url(#linear-gradient15);
      }

      .st15 {
        fill: url(#linear-gradient17);
      }

      .st16 {
        fill: url(#linear-gradient6);
      }

      .st17 {
        fill: url(#linear-gradient13);
      }

      .st18 {
        fill: url(#linear-gradient);
      }
    </style>
    <linearGradient id="linear-gradient" x1="286.76" y1="380.7" x2="329.06" y2="307.43" gradientUnits="userSpaceOnUse">
      <stop offset="0" stop-color="#b0def5"/>
      <stop offset=".42" stop-color="#000"/>
    </linearGradient>
    <linearGradient id="linear-gradient1" x1="225.18" y1="391.48" x2="346.1" y2="391.48" gradientUnits="userSpaceOnUse">
      <stop offset="0" stop-color="#bfe9ff"/>
      <stop offset=".46" stop-color="#2f6483"/>
      <stop offset="1" stop-color="#000"/>
    </linearGradient>
    <linearGradient id="linear-gradient2" x1="267.89" y1="401.29" x2="302.75" y2="340.92" xlink:href="#linear-gradient"/>
    <linearGradient id="linear-gradient3" x1="243.13" y1="407.93" x2="355.14" y2="407.93" xlink:href="#linear-gradient1"/>
    <linearGradient id="linear-gradient4" x1="292.04" y1="455.71" x2="337.07" y2="377.72" xlink:href="#linear-gradient"/>
    <linearGradient id="linear-gradient5" x1="253.24" y1="333.04" x2="339.9" y2="333.04" xlink:href="#linear-gradient1"/>
    <linearGradient id="linear-gradient6" x1="276.93" y1="421.49" x2="348.83" y2="421.49" xlink:href="#linear-gradient1"/>
    <linearGradient id="linear-gradient7" x1="360.54" y1="393.1" x2="372.27" y2="372.79" xlink:href="#linear-gradient"/>
    <linearGradient id="linear-gradient8" x1="347.54" y1="387.15" x2="359.44" y2="366.55" gradientUnits="userSpaceOnUse">
      <stop offset="0" stop-color="#bfe9ff"/>
      <stop offset=".46" stop-color="#2f6483"/>
      <stop offset="1" stop-color="#000"/>
    </linearGradient>
    <linearGradient id="linear-gradient9" x1="353.96" y1="390.7" x2="366.52" y2="368.94" xlink:href="#linear-gradient8"/>
    <linearGradient id="linear-gradient10" x1="107.05" y1="539.38" x2="107.05" y2="493.95" gradientUnits="userSpaceOnUse">
      <stop offset="0" stop-color="#2f6483"/>
      <stop offset="1" stop-color="#000"/>
    </linearGradient>
    <linearGradient id="linear-gradient11" x1="149.06" x2="149.06" xlink:href="#linear-gradient10"/>
    <linearGradient id="linear-gradient12" x1="190.56" x2="190.56" xlink:href="#linear-gradient10"/>
    <linearGradient id="linear-gradient13" x1="231.28" x2="231.28" xlink:href="#linear-gradient10"/>
    <linearGradient id="linear-gradient14" x1="285.13" x2="285.13" xlink:href="#linear-gradient10"/>
    <linearGradient id="linear-gradient15" x1="343.2" y1="540.36" x2="343.2" y2="493" xlink:href="#linear-gradient10"/>
    <linearGradient id="linear-gradient16" x1="395.6" x2="395.6" xlink:href="#linear-gradient10"/>
    <linearGradient id="linear-gradient17" x1="440.7" x2="440.7" xlink:href="#linear-gradient10"/>
    <linearGradient id="linear-gradient18" x1="486.6" x2="486.6" xlink:href="#linear-gradient10"/>
  </defs>
  <g>
    <path class="st18" d="M298.87,301.53c32.64-.27,63.66,22.29,70.5,54.66.45,2.11,1.52,7.72.76,9.54-1.06,2.56-4.25.63-5.98.11-2.69-.8-4.87-.22-5.86-3.42-.57-1.86-.87-4-1.42-5.93-5.75-20.13-22.05-36.53-42.27-42.11-27.51-7.58-56.89,4.86-72.24,28.32-.95,1.45-2.42,4.56-3.67,5.47-.66.48-3.64,1.52-4.47,1.63-1.58.2-2.08-.74-1.8-2.22.5-2.61,3.27-7.88,4.65-10.31,12.39-21.77,36.73-35.55,61.79-35.76Z"/>
    <path class="st2" d="M345.72,379.63h-9.36c-18.87,1.21-37.71,4.31-55.93,9.32-13.72,3.78-28.21,9.03-40.22,16.72-2.07,1.32-4.96,3.86-6.95,4.83-2.45,1.19-3.85-.63-5.01-2.57-3.01-5.06-4.78-13.45-.65-18.33,2.57-3.04,10.67-5.86,14.55-7.2,9.38-3.26,19.47-5.66,29.28-7.3,24.44-4.08,50.27-4.38,74.46,1.23l.2.17c-.26,1.02-.45,2.07-.38,3.12Z"/>
    <path class="st0" d="M272.82,350.58l7.03-.05c.33,0,.63.14.96.15,18.95.57,37.75,4.09,55.39,10.97,4.47,1.75,9.53,3.98,13.64,6.45.23.14,1.06.54,1.01.78-.04.16-2.02,2.13-2.41,2.16-8.17-2.18-16.43-4-24.83-5.11-27.69-3.69-56.49-1.2-83.14,7.01-3.45,1.06-7.18,2.69-10.61,3.52-10.61,2.57-7.78-9.03-3.48-14.01,3.36-3.9,9.11-5.74,13.93-7.13,10.54-3.06,21.57-4.3,32.53-4.74Z"/>
    <path class="st13" d="M355.14,393.35c-5.75,3.75-12.02,6.85-18.33,9.58-22.21,9.62-49.43,16.86-73.36,20.71-5.57.9-12.13,1.69-17.19-1.42-9.05-5.55,4-11.64,8.62-13.66,9.8-4.29,21.2-7,31.77-8.68,21.4-3.41,43.47-2.47,64.41-8.47.82-.07,3,1.88,4.07,1.94Z"/>
    <path class="st10" d="M258.85,435.74c.19-.03.37,0,.56.06,1.29.38,3.08,1.4,4.43,1.94,12.52,4.95,25.65,7.36,39.11,5.45,24.05-3.41,43.6-19.03,52.94-41.26.8-1.9,1.46-5.35,3.44-6.26.72-.33,5.25-1.08,6.13-1.09,3.84-.05,1.71,5.08,1.04,7.14-4.75,14.41-16.06,28.08-28.75,36.23-22.93,14.73-50.64,15.37-74.1,1.36-.99-.59-3.95-2.31-4.6-3.02-.17-.19-.25-.28-.2-.56Z"/>
    <path class="st12" d="M339.9,339.73c-.24.03-.46,0-.69-.07-1.72-.43-4.9-2.28-6.79-3.04-20.65-8.38-42.73-7.56-62.29,3.23-1.98,1.09-4.46,3.02-6.58,3.53s-6.69.88-8.77.65c-2.82-.32-1.06-3.08,0-4.3,12.41-14.25,36.72-20.13,54.82-16.86,10.05,1.82,23.34,7.75,29.83,15.89.22.28.52.59.48.97Z"/>
    <path class="st16" d="M348.76,404.71c.4.39-1.16,3.32-1.45,3.88-12.34,23.91-42.52,34.15-67.96,27.91-.23-.06-3.1-.6-2.27-1.19,1.54-.47,3.15-.81,4.74-1.06,4.09-.64,8.29-.75,12.41-1.31,19.94-2.71,37.16-10.56,51.08-25.12.62-.64,2.08-2.64,2.69-2.99.27-.15.47-.16.77-.13Z"/>
    <path class="st9" d="M368.3,370.63c.24-.24,1.4,1.02,1.59,1.24,6,7.22,2.1,18.63-7.13,20.44-1.6.31-2.9.58-4.29-.43-1.19-.86-1.56-1.99-1.38-3.44.41-3.39,6.39-8.7,8.65-11.44,1.44-1.75,3.12-3.96,2.56-6.37Z"/>
    <path class="st5" d="M352.23,389.75c-.26.06-.33-.15-.48-.28-8.67-7.15-3.5-21.65,7.62-22.16,2.59-.12,2.38.74.9,2.29-4.65,4.89-11.35,10.5-8.83,18.25.1.3.89,1.8.79,1.91Z"/>
    <path class="st3" d="M358.88,392.38c-.03.26-.71.15-.88.12-4.2-.6-5.83-4.79-5.17-8.6.58-3.33,2.93-6.52,5.15-8.98,1.07-1.18,5.2-4.93,5.45-6.2.1-.53-.15-.56-.25-1,2.88.43,4.89,1.61,2.88,4.61-2.87,4.31-11.15,10.04-10.78,15.54.14,2.05,1.65,3.91,3.6,4.51Z"/>
  </g>
  <g>
    <path class="st1" d="M124.88,493.95v8.78h-12.96v36.65h-9.73v-36.65h-12.99v-8.78h35.67Z"/>
    <path class="st6" d="M166.11,530.64v8.74h-34.09v-45.43h33.42v8.78h-23.66v9.09h18.47v8.74h-18.47v10.07h24.33Z"/>
    <path class="st8" d="M175.15,539.38v-45.43h9.76v36.68h21.07v8.74h-30.82Z"/>
    <path class="st17" d="M222.52,528.67l-3.9,10.71h-10.39l17.87-45.43h10.36l17.87,45.43h-10.39l-3.9-10.71h-17.52ZM231.3,505.33l-5.54,14.92h11.06l-5.51-14.92Z"/>
    <path class="st11" d="M300.85,493.95h8.62v45.43h-9.73v-30.29l-14.6,18.6-14.57-18.47v30.16h-9.76v-45.43h8.77l15.55,19.8,15.71-19.8Z"/>
    <path class="st14" d="M325.69,499.94c4.76-4.62,10.6-6.94,17.52-6.94s12.76,2.31,17.52,6.94c4.76,4.63,7.14,10.2,7.14,16.73s-2.38,12.11-7.14,16.74c-4.76,4.64-10.6,6.95-17.52,6.95s-12.76-2.32-17.52-6.95-7.14-10.22-7.14-16.74,2.38-12.1,7.14-16.73ZM332.86,527.28c2.83,2.87,6.28,4.31,10.34,4.31s7.51-1.44,10.34-4.31c2.83-2.87,4.24-6.4,4.24-10.6s-1.41-7.73-4.24-10.61c-2.83-2.88-6.28-4.33-10.34-4.33s-7.51,1.44-10.34,4.33c-2.83,2.88-4.24,6.42-4.24,10.61s1.42,7.72,4.24,10.6Z"/>
    <path class="st7" d="M376.94,493.95h20.12c4.5,0,8.22,1.44,11.17,4.32,2.95,2.88,4.42,6.42,4.42,10.6,0,1.82-.28,3.52-.86,5.1s-1.24,2.86-2.01,3.83-1.56,1.81-2.36,2.5c-.8.7-1.49,1.17-2.06,1.43l-.82.44,9.73,17.2h-10.39l-8.74-15.9h-8.43v15.9h-9.76v-45.43ZM401.16,504.47c-1.17-1.16-2.65-1.74-4.42-1.74h-10.04v12.01h10.04c1.77,0,3.25-.56,4.42-1.69,1.17-1.13,1.76-2.52,1.76-4.17,0-1.77-.59-3.24-1.76-4.4Z"/>
    <path class="st15" d="M442.15,493.95c4.67,0,8.54,1.46,11.61,4.39,3.07,2.92,4.61,6.55,4.61,10.87s-1.53,7.94-4.59,10.87c-3.06,2.93-6.94,4.39-11.63,4.39h-9.38v14.92h-9.76v-45.43h19.13ZM432.78,502.73v12.96h9.06c1.94,0,3.56-.62,4.86-1.87,1.3-1.25,1.95-2.78,1.95-4.59s-.65-3.35-1.95-4.61c-1.3-1.26-2.92-1.89-4.86-1.89h-9.06Z"/>
    <path class="st4" d="M506.06,539.38h-9.73v-18.5h-19.45v18.5h-9.76v-45.43h9.76v18.18h19.45v-18.18h9.73v45.43Z"/>
  </g>
</svg>